<?xml version="1.0" standalone="no"?>
<!DOCTYPE svg PUBLIC "-//W3C//DTD SVG 20010904//EN"
 "http://www.w3.org/TR/2001/REC-SVG-20010904/DTD/svg10.dtd">
<svg version="1.0" xmlns="http://www.w3.org/2000/svg"
 width="1536.000000pt" height="1024.000000pt" viewBox="0 0 1536.000000 1024.000000"
 preserveAspectRatio="xMidYMid meet">

<g transform="translate(0.000000,1024.000000) scale(0.100000,-0.100000)"
fill="#000000" stroke="none">
<path d="M4874 6960 c-149 -31 -253 -150 -262 -301 -6 -95 12 -153 69 -227
l40 -54 -89 -151 c-49 -84 -113 -196 -143 -249 -30 -54 -57 -97 -61 -98 -4 0
-29 14 -55 30 -26 17 -53 30 -60 30 -7 0 -13 3 -13 6 0 3 56 104 125 224 69
120 125 222 125 228 0 18 -139 48 -277 58 -115 8 -309 -17 -423 -55 -91 -31
-260 -106 -260 -116 0 -3 79 -93 176 -199 l176 -194 56 26 c50 23 70 26 157
26 82 0 109 -4 150 -23 124 -56 192 -120 243 -228 24 -52 27 -70 27 -167 l1
-110 233 -133 233 -134 52 50 c55 51 122 90 193 111 52 16 56 35 42 170 -26
261 -122 473 -285 630 -49 48 -102 95 -117 106 -25 18 -27 22 -17 50 10 29 15
32 71 38 69 7 132 32 184 73 43 34 85 93 88 122 1 11 4 21 8 21 14 0 31 112
25 154 -10 62 -58 156 -102 198 -76 72 -208 110 -310 88z"/>
<path d="M3111 6729 c-111 -22 -212 -104 -251 -205 -67 -171 9 -354 179 -432
47 -22 71 -26 149 -27 78 0 95 -3 103 -18 8 -13 3 -24 -20 -49 -81 -87 -167
-294 -197 -473 -37 -230 18 -514 139 -714 l32 -54 130 -1 c101 -1 139 -5 170
-19 48 -22 32 -41 167 193 128 222 167 282 178 275 24 -15 6 8 -35 46 -86 79
-135 222 -116 337 10 65 45 155 67 173 8 6 14 18 14 25 0 8 -83 102 -184 210
l-183 196 30 56 c42 76 49 181 18 263 -40 106 -136 189 -250 215 -63 15 -77
16 -140 3z"/>
<path d="M9926 6167 c-50 -28 -80 -85 -79 -149 1 -55 17 -85 69 -125 71 -53
200 -30 252 47 47 70 17 192 -58 231 -49 27 -134 25 -184 -4z"/>
<path d="M8680 5395 l0 -785 150 0 150 0 0 50 0 51 38 -30 c20 -17 64 -43 97
-58 53 -24 71 -28 155 -27 123 0 188 25 269 100 68 62 120 154 147 259 26 100
26 324 0 420 -54 203 -164 315 -338 345 -113 20 -242 -18 -321 -95 -20 -19
-38 -35 -42 -35 -3 0 -5 133 -5 295 l0 295 -150 0 -150 0 0 -785z m600 73 c83
-42 110 -106 117 -283 8 -188 -26 -286 -118 -340 -53 -31 -151 -28 -209 7 -88
52 -90 57 -90 298 l0 211 26 35 c66 86 184 117 274 72z"/>
<path d="M10834 6169 c-222 -26 -332 -137 -357 -358 l-11 -101 -83 0 -83 0 0
-110 0 -110 85 0 85 0 0 -440 0 -440 150 0 150 0 0 440 0 440 130 0 130 0 0
105 0 105 -99 0 c-54 0 -113 3 -130 6 -28 6 -31 10 -31 43 0 140 74 199 234
188 97 -7 90 -15 101 108 4 39 9 78 11 87 4 13 -6 18 -48 27 -86 16 -158 19
-234 10z"/>
<path d="M6120 5370 l0 -760 155 0 155 0 0 315 0 315 38 1 c278 6 463 7 490 2
l32 -5 0 -314 0 -314 155 0 155 0 0 760 0 760 -155 0 -155 0 -2 -307 -3 -308
-277 -3 -278 -2 0 310 0 310 -155 0 -155 0 0 -760z"/>
<path d="M7490 5302 c0 -449 4 -484 61 -573 31 -49 78 -87 144 -116 29 -12 67
-17 140 -17 131 -1 191 22 280 106 l64 59 3 -73 3 -73 138 -3 137 -3 0 541 c0
297 0 543 0 548 0 4 -66 7 -147 7 l-148 0 -2 -355 c-1 -195 -2 -361 -2 -367
-1 -22 -73 -94 -114 -115 -53 -27 -164 -23 -197 7 -55 49 -55 51 -58 458 l-3
377 -150 0 -149 0 0 -408z"/>
<path d="M9870 5159 l0 -549 150 0 150 0 -2 548 -3 547 -147 2 -148 2 0 -550z"/>
<path d="M11050 5699 c0 -14 372 -1019 391 -1055 9 -17 6 -31 -15 -72 -44 -88
-117 -125 -225 -114 -28 2 -51 3 -52 1 0 -2 -8 -55 -18 -117 -9 -62 -14 -115
-9 -118 19 -12 187 -16 235 -5 121 25 227 106 300 229 45 76 165 413 156 440
-3 13 -2 14 4 4 7 -9 27 41 66 158 47 142 55 174 46 197 -12 32 -2 185 14 195
13 8 39 -1 53 -19 14 -16 9 -27 69 150 l44 127 -149 0 -149 0 -17 -57 c-8 -32
-31 -105 -49 -163 -32 -102 -96 -316 -129 -432 -15 -53 -36 -78 -36 -44 0 7
-35 125 -79 262 -43 137 -91 290 -106 341 l-28 92 -158 3 c-88 2 -159 0 -159
-3z m869 -316 c0 -16 -3 -22 -6 -15 -2 6 -9 9 -15 6 -5 -3 -4 3 4 15 17 27 18
27 17 -6z"/>
<path d="M11962 5331 c-7 -4 -11 -14 -9 -22 2 -8 2 -11 0 -6 -6 9 -23 -1 -23
-14 0 -6 5 -7 10 -4 6 3 10 -1 10 -10 0 -9 -4 -13 -10 -10 -6 3 -7 -1 -4 -9 9
-23 10 -21 28 31 17 50 17 56 -2 44z"/>
<path d="M4452 5242 c-102 -103 -289 -146 -437 -99 -4 1 -39 -56 -79 -128 -40
-71 -105 -187 -144 -258 l-72 -127 44 -64 c40 -58 64 -116 80 -187 6 -30 48
-42 205 -60 357 -41 732 95 996 361 l69 69 23 -34 c49 -72 147 -119 248 -118
70 1 157 31 131 45 -19 11 -20 25 -3 42 9 9 11 31 7 72 -4 49 1 145 14 259 1
11 8 30 14 42 7 12 11 28 10 35 -2 7 3 12 11 10 12 -3 12 -1 1 13 -50 61 -210
84 -312 45 -66 -25 -139 -98 -159 -158 -6 -20 -14 -40 -18 -44 -6 -7 -536 286
-571 316 -13 11 -22 6 -58 -32z m1048 -612 c-20 -13 -33 -13 -25 0 3 6 14 10
23 10 15 0 15 -2 2 -10z"/>
<path d="M5605 5062 c1 -17 -2 -29 -7 -26 -4 3 -8 1 -8 -5 0 -5 4 -12 10 -16
5 -3 7 -12 4 -19 -3 -7 6 -27 20 -44 15 -16 26 -36 27 -43 1 -8 5 6 10 30 8
44 -4 82 -44 135 -13 18 -14 17 -12 -12z"/>
<path d="M5573 5050 c0 -23 3 -28 9 -16 5 9 5 23 0 32 -6 12 -9 7 -9 -16z"/>
<path d="M5594 4688 l-29 -33 33 29 c17 17 32 31 32 33 0 8 -8 1 -36 -29z"/>
<path d="M3319 4630 c-106 -19 -194 -81 -244 -171 -27 -49 -30 -62 -30 -149 0
-81 4 -103 24 -145 108 -219 420 -262 580 -79 57 65 76 118 76 214 0 73 -4 93
-28 142 -68 138 -224 216 -378 188z"/>
</g>
</svg>
